<svg xmlns="http://www.w3.org/2000/svg" version="1.1" xmlns:xlink="http://www.w3.org/1999/xlink" xmlns:svgjs="http://svgjs.dev/svgjs" viewBox="0 0 2400 600" opacity="0.75"><defs><linearGradient x1="50%" y1="0%" x2="50%" y2="100%" id="sssurf-grad"><stop stop-color="hsl(208, 77%, 50%)" stop-opacity="1" offset="0%"></stop><stop stop-color="hsl(208, 74%, 93%)" stop-opacity="1" offset="100%"></stop></linearGradient></defs><g fill="url(#sssurf-grad)" transform="matrix(1,0,0,1,9.109130859375,141.00495529174805)"><path d="M-10,10C37.53787878787879,17.5,125.18939393939395,53.083333333333336,218.1818181818182,46C311.17424242424244,38.916666666666664,345.4545454545455,-24.208333333333332,436.3636363636364,-24C527.2727272727273,-23.791666666666668,563.6363636363636,45.333333333333336,654.5454545454545,47C745.4545454545454,48.666666666666664,781.8181818181818,-11.208333333333332,872.7272727272727,-16C963.6363636363637,-20.791666666666668,1000.0000000000001,26.916666666666668,1090.909090909091,24C1181.818181818182,21.083333333333332,1218.181818181818,-30.833333333333332,1309.090909090909,-30C1400,-29.166666666666668,1436.3636363636363,27.583333333333332,1527.2727272727273,28C1618.1818181818182,28.416666666666668,1654.5454545454545,-30.708333333333332,1745.4545454545455,-28C1836.3636363636365,-25.291666666666668,1872.7272727272727,33.083333333333336,1963.6363636363637,41C2054.5454545454545,48.916666666666664,2090.909090909091,8.333333333333334,2181.818181818182,10C2272.727272727273,11.666666666666666,2302.462121212121,-32.25,2400,49C2497.537878787879,130.25,3254.1666666666665,222.70833333333331,2650,400C2045.8333333333335,577.2916666666667,156.25,795.8333333333334,-500,900" transform="matrix(1,0,0,1,0,56)" opacity="0.05"></path><path d="M-10,10C37.53787878787879,17.5,125.18939393939395,53.083333333333336,218.1818181818182,46C311.17424242424244,38.916666666666664,345.4545454545455,-24.208333333333332,436.3636363636364,-24C527.2727272727273,-23.791666666666668,563.6363636363636,45.333333333333336,654.5454545454545,47C745.4545454545454,48.666666666666664,781.8181818181818,-11.208333333333332,872.7272727272727,-16C963.6363636363637,-20.791666666666668,1000.0000000000001,26.916666666666668,1090.909090909091,24C1181.818181818182,21.083333333333332,1218.181818181818,-30.833333333333332,1309.090909090909,-30C1400,-29.166666666666668,1436.3636363636363,27.583333333333332,1527.2727272727273,28C1618.1818181818182,28.416666666666668,1654.5454545454545,-30.708333333333332,1745.4545454545455,-28C1836.3636363636365,-25.291666666666668,1872.7272727272727,33.083333333333336,1963.6363636363637,41C2054.5454545454545,48.916666666666664,2090.909090909091,8.333333333333334,2181.818181818182,10C2272.727272727273,11.666666666666666,2302.462121212121,-32.25,2400,49C2497.537878787879,130.25,3254.1666666666665,222.70833333333331,2650,400C2045.8333333333335,577.2916666666667,156.25,795.8333333333334,-500,900" transform="matrix(1,0,0,1,0,112)" opacity="0.21"></path><path d="M-10,10C37.53787878787879,17.5,125.18939393939395,53.083333333333336,218.1818181818182,46C311.17424242424244,38.916666666666664,345.4545454545455,-24.208333333333332,436.3636363636364,-24C527.2727272727273,-23.791666666666668,563.6363636363636,45.333333333333336,654.5454545454545,47C745.4545454545454,48.666666666666664,781.8181818181818,-11.208333333333332,872.7272727272727,-16C963.6363636363637,-20.791666666666668,1000.0000000000001,26.916666666666668,1090.909090909091,24C1181.818181818182,21.083333333333332,1218.181818181818,-30.833333333333332,1309.090909090909,-30C1400,-29.166666666666668,1436.3636363636363,27.583333333333332,1527.2727272727273,28C1618.1818181818182,28.416666666666668,1654.5454545454545,-30.708333333333332,1745.4545454545455,-28C1836.3636363636365,-25.291666666666668,1872.7272727272727,33.083333333333336,1963.6363636363637,41C2054.5454545454545,48.916666666666664,2090.909090909091,8.333333333333334,2181.818181818182,10C2272.727272727273,11.666666666666666,2302.462121212121,-32.25,2400,49C2497.537878787879,130.25,3254.1666666666665,222.70833333333331,2650,400C2045.8333333333335,577.2916666666667,156.25,795.8333333333334,-500,900" transform="matrix(1,0,0,1,0,168)" opacity="0.37"></path><path d="M-10,10C37.53787878787879,17.5,125.18939393939395,53.083333333333336,218.1818181818182,46C311.17424242424244,38.916666666666664,345.4545454545455,-24.208333333333332,436.3636363636364,-24C527.2727272727273,-23.791666666666668,563.6363636363636,45.333333333333336,654.5454545454545,47C745.4545454545454,48.666666666666664,781.8181818181818,-11.208333333333332,872.7272727272727,-16C963.6363636363637,-20.791666666666668,1000.0000000000001,26.916666666666668,1090.909090909091,24C1181.818181818182,21.083333333333332,1218.181818181818,-30.833333333333332,1309.090909090909,-30C1400,-29.166666666666668,1436.3636363636363,27.583333333333332,1527.2727272727273,28C1618.1818181818182,28.416666666666668,1654.5454545454545,-30.708333333333332,1745.4545454545455,-28C1836.3636363636365,-25.291666666666668,1872.7272727272727,33.083333333333336,1963.6363636363637,41C2054.5454545454545,48.916666666666664,2090.909090909091,8.333333333333334,2181.818181818182,10C2272.727272727273,11.666666666666666,2302.462121212121,-32.25,2400,49C2497.537878787879,130.25,3254.1666666666665,222.70833333333331,2650,400C2045.8333333333335,577.2916666666667,156.25,795.8333333333334,-500,900" transform="matrix(1,0,0,1,0,224)" opacity="0.53"></path><path d="M-10,10C37.53787878787879,17.5,125.18939393939395,53.083333333333336,218.1818181818182,46C311.17424242424244,38.916666666666664,345.4545454545455,-24.208333333333332,436.3636363636364,-24C527.2727272727273,-23.791666666666668,563.6363636363636,45.333333333333336,654.5454545454545,47C745.4545454545454,48.666666666666664,781.8181818181818,-11.208333333333332,872.7272727272727,-16C963.6363636363637,-20.791666666666668,1000.0000000000001,26.916666666666668,1090.909090909091,24C1181.818181818182,21.083333333333332,1218.181818181818,-30.833333333333332,1309.090909090909,-30C1400,-29.166666666666668,1436.3636363636363,27.583333333333332,1527.2727272727273,28C1618.1818181818182,28.416666666666668,1654.5454545454545,-30.708333333333332,1745.4545454545455,-28C1836.3636363636365,-25.291666666666668,1872.7272727272727,33.083333333333336,1963.6363636363637,41C2054.5454545454545,48.916666666666664,2090.909090909091,8.333333333333334,2181.818181818182,10C2272.727272727273,11.666666666666666,2302.462121212121,-32.25,2400,49C2497.537878787879,130.25,3254.1666666666665,222.70833333333331,2650,400C2045.8333333333335,577.2916666666667,156.25,795.8333333333334,-500,900" transform="matrix(1,0,0,1,0,280)" opacity="0.68"></path><path d="M-10,10C37.53787878787879,17.5,125.18939393939395,53.083333333333336,218.1818181818182,46C311.17424242424244,38.916666666666664,345.4545454545455,-24.208333333333332,436.3636363636364,-24C527.2727272727273,-23.791666666666668,563.6363636363636,45.333333333333336,654.5454545454545,47C745.4545454545454,48.666666666666664,781.8181818181818,-11.208333333333332,872.7272727272727,-16C963.6363636363637,-20.791666666666668,1000.0000000000001,26.916666666666668,1090.909090909091,24C1181.818181818182,21.083333333333332,1218.181818181818,-30.833333333333332,1309.090909090909,-30C1400,-29.166666666666668,1436.3636363636363,27.583333333333332,1527.2727272727273,28C1618.1818181818182,28.416666666666668,1654.5454545454545,-30.708333333333332,1745.4545454545455,-28C1836.3636363636365,-25.291666666666668,1872.7272727272727,33.083333333333336,1963.6363636363637,41C2054.5454545454545,48.916666666666664,2090.909090909091,8.333333333333334,2181.818181818182,10C2272.727272727273,11.666666666666666,2302.462121212121,-32.25,2400,49C2497.537878787879,130.25,3254.1666666666665,222.70833333333331,2650,400C2045.8333333333335,577.2916666666667,156.25,795.8333333333334,-500,900" transform="matrix(1,0,0,1,0,336)" opacity="0.84"></path><path d="M-10,10C37.53787878787879,17.5,125.18939393939395,53.083333333333336,218.1818181818182,46C311.17424242424244,38.916666666666664,345.4545454545455,-24.208333333333332,436.3636363636364,-24C527.2727272727273,-23.791666666666668,563.6363636363636,45.333333333333336,654.5454545454545,47C745.4545454545454,48.666666666666664,781.8181818181818,-11.208333333333332,872.7272727272727,-16C963.6363636363637,-20.791666666666668,1000.0000000000001,26.916666666666668,1090.909090909091,24C1181.818181818182,21.083333333333332,1218.181818181818,-30.833333333333332,1309.090909090909,-30C1400,-29.166666666666668,1436.3636363636363,27.583333333333332,1527.2727272727273,28C1618.1818181818182,28.416666666666668,1654.5454545454545,-30.708333333333332,1745.4545454545455,-28C1836.3636363636365,-25.291666666666668,1872.7272727272727,33.083333333333336,1963.6363636363637,41C2054.5454545454545,48.916666666666664,2090.909090909091,8.333333333333334,2181.818181818182,10C2272.727272727273,11.666666666666666,2302.462121212121,-32.25,2400,49C2497.537878787879,130.25,3254.1666666666665,222.70833333333331,2650,400C2045.8333333333335,577.2916666666667,156.25,795.8333333333334,-500,900" transform="matrix(1,0,0,1,0,392)" opacity="1"></path></g></svg>